<?xml version="1.0" standalone="no"?>
<!DOCTYPE svg PUBLIC "-//W3C//DTD SVG 20010904//EN"
 "http://www.w3.org/TR/2001/REC-SVG-20010904/DTD/svg10.dtd">
<svg version="1.0" xmlns="http://www.w3.org/2000/svg"
 width="512.000000pt" height="512.000000pt" viewBox="0 0 512.000000 512.000000"
 preserveAspectRatio="xMidYMid meet">
<metadata>
Created by potrace 1.14, written by Peter Selinger 2001-2017
</metadata>
<g transform="translate(0.000000,512.000000) scale(0.100000,-0.100000)"
fill="#000000" stroke="none">
<path d="M3127 4794 c-1 -1 -15 -5 -32 -8 -62 -11 -106 -24 -123 -37 -43 -32
-82 -83 -97 -129 -1 -3 -7 -18 -14 -35 -7 -16 -19 -46 -26 -65 -8 -25 -19 -36
-36 -39 -13 -1 -26 -6 -29 -10 -3 -3 -14 -11 -25 -17 -23 -12 -67 -124 -80
-199 -2 -11 -15 -46 -30 -78 -15 -32 -28 -63 -29 -70 -1 -7 -7 -28 -13 -47 -7
-19 -14 -52 -18 -74 -3 -21 -14 -50 -24 -65 -22 -31 -52 -117 -43 -125 3 -3 0
-6 -6 -6 -16 0 -15 -43 0 -58 7 -7 8 -12 3 -12 -4 0 0 -9 9 -19 17 -19 17 -22
0 -73 -10 -29 -19 -57 -20 -63 -2 -5 -24 -68 -49 -140 -25 -71 -53 -150 -61
-175 -8 -25 -19 -54 -24 -65 -4 -11 -21 -58 -36 -105 -15 -47 -31 -89 -36 -94
-4 -6 -8 -18 -8 -28 0 -10 -4 -26 -9 -36 -6 -9 -29 -73 -52 -142 -23 -69 -46
-131 -52 -137 -5 -7 -7 -13 -3 -13 3 0 1 -12 -5 -27 -6 -16 -38 -104 -71 -198
-32 -93 -70 -201 -84 -240 -13 -38 -35 -101 -49 -140 -13 -38 -45 -128 -70
-200 -25 -71 -48 -137 -50 -146 -1 -8 -10 -32 -19 -52 -8 -20 -12 -37 -9 -37
3 0 1 -6 -5 -13 -6 -7 -13 -24 -16 -37 -3 -14 -17 -59 -32 -100 -14 -41 -29
-86 -32 -100 -6 -21 -8 -323 -3 -410 1 -14 1 -32 1 -40 0 -8 2 -37 4 -65 2
-27 7 -85 11 -128 4 -43 8 -157 9 -253 1 -161 3 -177 21 -190 10 -8 25 -14 32
-14 16 0 78 67 162 175 25 33 74 88 108 123 35 34 63 67 63 72 0 6 7 10 15 10
8 0 15 4 15 10 0 5 10 19 23 32 12 13 49 54 82 93 33 38 69 79 80 91 11 12 36
41 55 64 19 23 40 48 46 54 26 28 76 128 103 207 16 46 35 102 44 124 16 43
24 67 25 75 0 3 12 37 27 75 15 39 28 77 31 85 2 8 17 52 33 96 16 45 27 85
24 88 -4 3 -1 6 5 6 7 0 12 11 12 24 0 14 5 28 10 31 6 3 10 12 10 20 0 8 5
26 12 42 6 15 12 33 14 38 2 6 10 30 19 55 9 25 19 52 21 60 4 15 56 163 67
190 3 8 27 76 52 150 26 74 62 178 80 230 140 398 178 508 182 528 3 12 9 25
14 28 5 3 9 15 9 28 0 12 3 26 7 30 4 3 8 12 9 19 1 7 16 48 32 92 16 44 29
85 30 90 0 6 20 16 44 22 46 14 88 53 88 83 0 10 4 21 9 24 8 6 20 50 27 109
2 15 11 38 20 52 21 32 74 175 74 200 0 11 9 37 20 58 11 20 20 44 20 52 0 8
5 15 10 15 6 0 10 7 10 16 0 8 7 38 16 65 16 47 16 53 1 82 -9 18 -27 45 -39
60 -14 17 -19 31 -13 35 6 4 11 12 12 17 1 6 11 36 23 68 20 56 20 73 3 152
-2 11 -6 31 -8 45 -6 41 -12 62 -31 110 -29 73 -42 90 -67 82 -12 -5 -35 -7
-52 -7 -33 1 -115 40 -115 54 0 18 -67 30 -153 28 -49 -1 -89 -3 -90 -3z"/>
</g>
</svg>
